<svg xmlns="http://www.w3.org/2000/svg" xmlns:xlink="http://www.w3.org/1999/xlink" width="40" zoomAndPan="magnify" viewBox="0 0 30 30.000001" height="40" preserveAspectRatio="xMidYMid meet" version="1.0"><defs><clipPath id="e4e552c220"><path d="M 0.664062 2.902344 L 29.515625 2.902344 L 29.515625 26.128906 L 0.664062 26.128906 Z M 0.664062 2.902344 " clip-rule="nonzero"/></clipPath><clipPath id="1ec64880ad"><path d="M 2.113281 4.828125 L 28.242188 4.828125 L 28.242188 24.421875 L 2.113281 24.421875 Z M 2.113281 4.828125 " clip-rule="nonzero"/></clipPath><clipPath id="5f7e2342a2"><path d="M 2.113281 4.828125 L 28.242188 4.828125 L 28.242188 24.421875 L 2.113281 24.421875 Z M 2.113281 4.828125 " clip-rule="nonzero"/></clipPath></defs><path fill="#f5fafb" d="M 28.648438 6.324219 L 28.648438 22.707031 C 28.648438 24.214844 27.425781 25.4375 25.917969 25.4375 L 4.074219 25.4375 C 2.566406 25.4375 1.34375 24.214844 1.34375 22.707031 L 1.34375 6.324219 C 1.34375 4.816406 2.566406 3.59375 4.074219 3.59375 L 25.917969 3.59375 C 27.425781 3.59375 28.648438 4.816406 28.648438 6.324219 Z M 28.648438 6.324219 " fill-opacity="1" fill-rule="nonzero"/><path fill="#7c3aed" d="M 6.804688 20.660156 C 6.632812 20.660156 6.457031 20.59375 6.324219 20.460938 C 6.058594 20.191406 6.058594 19.761719 6.324219 19.496094 L 11.300781 14.515625 L 6.324219 9.539062 C 6.058594 9.269531 6.058594 8.839844 6.324219 8.574219 C 6.589844 8.304688 7.023438 8.304688 7.289062 8.574219 L 12.75 14.035156 C 13.015625 14.300781 13.015625 14.730469 12.75 15 L 7.289062 20.460938 C 7.15625 20.59375 6.980469 20.660156 6.804688 20.660156 Z M 23.871094 19.976562 C 23.871094 19.601562 23.566406 19.292969 23.1875 19.292969 L 14.996094 19.292969 C 14.621094 19.292969 14.316406 19.601562 14.316406 19.976562 C 14.316406 20.355469 14.621094 20.660156 14.996094 20.660156 L 23.1875 20.660156 C 23.566406 20.660156 23.871094 20.355469 23.871094 19.976562 Z M 23.871094 19.976562 " fill-opacity="1" fill-rule="nonzero"/><g clip-path="url(#e4e552c220)"><path fill="#f5fafb" d="M 25.917969 2.910156 L 4.074219 2.910156 C 2.195312 2.910156 0.664062 4.441406 0.664062 6.324219 L 0.664062 22.707031 C 0.664062 24.589844 2.195312 26.121094 4.074219 26.121094 L 25.917969 26.121094 C 27.800781 26.121094 29.332031 24.589844 29.332031 22.707031 L 29.332031 6.324219 C 29.332031 4.441406 27.800781 2.910156 25.917969 2.910156 Z M 27.96875 22.707031 C 27.96875 23.835938 27.046875 24.753906 25.917969 24.753906 L 4.074219 24.753906 C 2.945312 24.753906 2.027344 23.835938 2.027344 22.707031 L 2.027344 6.324219 C 2.027344 5.195312 2.945312 4.277344 4.074219 4.277344 L 25.917969 4.277344 C 27.046875 4.277344 27.96875 5.195312 27.96875 6.324219 Z M 27.96875 22.707031 " fill-opacity="1" fill-rule="nonzero"/></g><g clip-path="url(#1ec64880ad)"><path fill="#f5fafb" d="M 32.175781 3.578125 L 32.175781 24.210938 C 32.175781 26.109375 30.636719 27.648438 28.734375 27.648438 L 1.222656 27.648438 C -0.675781 27.648438 -2.214844 26.109375 -2.214844 24.210938 L -2.214844 3.578125 C -2.214844 1.675781 -0.675781 0.136719 1.222656 0.136719 L 28.734375 0.136719 C 30.636719 0.136719 32.175781 1.675781 32.175781 3.578125 Z M 32.175781 3.578125 " fill-opacity="1" fill-rule="nonzero"/></g><path fill="#7c3aed" d="M 4.664062 21.628906 C 4.441406 21.628906 4.222656 21.546875 4.054688 21.378906 C 3.71875 21.042969 3.71875 20.5 4.054688 20.164062 L 10.324219 13.894531 L 4.054688 7.621094 C 3.71875 7.289062 3.71875 6.742188 4.054688 6.40625 C 4.390625 6.070312 4.933594 6.070312 5.269531 6.40625 L 12.148438 13.285156 C 12.484375 13.621094 12.484375 14.164062 12.148438 14.5 L 5.269531 21.378906 C 5.101562 21.546875 4.882812 21.628906 4.664062 21.628906 Z M 26.15625 20.769531 C 26.15625 20.296875 25.773438 19.910156 25.296875 19.910156 L 14.980469 19.910156 C 14.503906 19.910156 14.121094 20.296875 14.121094 20.769531 C 14.121094 21.246094 14.503906 21.628906 14.980469 21.628906 L 25.296875 21.628906 C 25.773438 21.628906 26.15625 21.246094 26.15625 20.769531 Z M 26.15625 20.769531 " fill-opacity="1" fill-rule="nonzero"/><g clip-path="url(#5f7e2342a2)"><path fill="#0f172a" d="M 28.734375 -0.722656 L 1.222656 -0.722656 C -1.144531 -0.722656 -3.074219 1.207031 -3.074219 3.578125 L -3.074219 24.210938 C -3.074219 26.582031 -1.144531 28.507812 1.222656 28.507812 L 28.734375 28.507812 C 31.105469 28.507812 33.035156 26.582031 33.035156 24.210938 L 33.035156 3.578125 C 33.035156 1.207031 31.105469 -0.722656 28.734375 -0.722656 Z M 31.316406 24.210938 C 31.316406 25.632812 30.15625 26.789062 28.734375 26.789062 L 1.222656 26.789062 C -0.199219 26.789062 -1.355469 25.632812 -1.355469 24.210938 L -1.355469 3.578125 C -1.355469 2.152344 -0.199219 0.996094 1.222656 0.996094 L 28.734375 0.996094 C 30.15625 0.996094 31.316406 2.152344 31.316406 3.578125 Z M 31.316406 24.210938 " fill-opacity="1" fill-rule="nonzero"/></g></svg>