<svg xmlns="http://www.w3.org/2000/svg" xmlns:xlink="http://www.w3.org/1999/xlink" width="40" zoomAndPan="magnify" viewBox="0 0 30 30.000001" height="40" preserveAspectRatio="xMidYMid meet" version="1.0"><defs><g/><clipPath id="4a53d7d851"><rect x="0" width="8" y="0" height="11"/></clipPath><clipPath id="48af48f013"><path d="M 3.386719 5.109375 L 26.613281 5.109375 L 26.613281 23.980469 L 3.386719 23.980469 Z M 3.386719 5.109375 " clip-rule="nonzero"/></clipPath><clipPath id="aa297f0d07"><path d="M 3.386719 5.109375 L 26.613281 5.109375 L 26.613281 23.980469 L 3.386719 23.980469 Z M 3.386719 5.109375 " clip-rule="nonzero"/></clipPath></defs><g transform="matrix(1, 0, 0, 1, 14, 9)"><g clip-path="url(#4a53d7d851)"><g fill="#f3ebfc" fill-opacity="1"><g transform="translate(0.999999, 8.431234)"><g><path d="M 4.796875 0 L 4.796875 -2.796875 L 1.53125 -2.796875 L 1.53125 0 L 0.71875 0 L 0.71875 -6.015625 L 1.53125 -6.015625 L 1.53125 -3.46875 L 4.796875 -3.46875 L 4.796875 -6.015625 L 5.609375 -6.015625 L 5.609375 0 Z M 4.796875 0 "/></g></g></g></g></g><g clip-path="url(#48af48f013)"><path fill="#3e00a7" d="M 26.058594 7.875 L 26.058594 21.148438 C 26.058594 22.367188 25.070312 23.359375 23.847656 23.359375 L 6.152344 23.359375 C 4.929688 23.359375 3.941406 22.367188 3.941406 21.148438 L 3.941406 7.875 C 3.941406 6.652344 4.929688 5.664062 6.152344 5.664062 L 23.847656 5.664062 C 25.070312 5.664062 26.058594 6.652344 26.058594 7.875 Z M 26.058594 7.875 " fill-opacity="1" fill-rule="nonzero"/></g><path fill="#f3ebfc" d="M 8.363281 19.488281 C 8.222656 19.488281 8.082031 19.433594 7.972656 19.324219 C 7.757812 19.109375 7.757812 18.761719 7.972656 18.542969 L 12.007812 14.511719 L 7.972656 10.476562 C 7.757812 10.261719 7.757812 9.914062 7.972656 9.695312 C 8.1875 9.480469 8.539062 9.480469 8.753906 9.695312 L 13.179688 14.121094 C 13.394531 14.335938 13.394531 14.6875 13.179688 14.902344 L 8.753906 19.324219 C 8.648438 19.433594 8.503906 19.488281 8.363281 19.488281 Z M 22.1875 18.933594 C 22.1875 18.628906 21.941406 18.382812 21.636719 18.382812 L 15 18.382812 C 14.695312 18.382812 14.445312 18.628906 14.445312 18.933594 C 14.445312 19.242188 14.695312 19.488281 15 19.488281 L 21.636719 19.488281 C 21.941406 19.488281 22.1875 19.242188 22.1875 18.933594 Z M 22.1875 18.933594 " fill-opacity="1" fill-rule="nonzero"/><g clip-path="url(#aa297f0d07)"><path fill="#300080" d="M 23.847656 5.109375 L 6.152344 5.109375 C 4.628906 5.109375 3.386719 6.351562 3.386719 7.875 L 3.386719 21.148438 C 3.386719 22.671875 4.628906 23.910156 6.152344 23.910156 L 23.847656 23.910156 C 25.371094 23.910156 26.613281 22.671875 26.613281 21.148438 L 26.613281 7.875 C 26.613281 6.351562 25.371094 5.109375 23.847656 5.109375 Z M 25.507812 21.148438 C 25.507812 22.0625 24.761719 22.804688 23.847656 22.804688 L 6.152344 22.804688 C 5.238281 22.804688 4.492188 22.0625 4.492188 21.148438 L 4.492188 7.875 C 4.492188 6.960938 5.238281 6.214844 6.152344 6.214844 L 23.847656 6.214844 C 24.761719 6.214844 25.507812 6.960938 25.507812 7.875 Z M 25.507812 21.148438 " fill-opacity="1" fill-rule="nonzero"/></g></svg>